# xmcd
#
# Track frame offsets:
#	150
#	15699
#	29979
#	46508
#	58673
#	72379
#	84582
#	101020
#	115930
#	133451
#	149890
#	166600
#	183218
#	200715
#	216881
#
# Disc length: 3137 seconds
#
# Revision: 0
# Processed by: cddbd v1.5.2PL0 Copyright (c) Steve Scherf et al.
# Submitted via: EasyCDDAExtractor 12.0.0.1
#
DISCID=e60c3f0f
DTITLE=Various Artist - Rodeio Sertanejo - Robson Quirino
DYEAR=1900
DGENRE=Sertanejo
TTITLE0=Instrumental - Chitãozinho E Xororó - Aventura De Rodeio - 60 Dias Apa
TTITLE0=ixonado
TTITLE1=Teodoro E Sampaio - Pinga Ne Mim
TTITLE2=Henrique E Ricardo - Rodeio
TTITLE3=Peão Carreiro E Zé Paulo - Rabo De Saia
TTITLE4=João Mineiro E Marciano - Amor E Amizade
TTITLE5=Teodoro E Sampaio - Passe Livre
TTITLE6=Allan E Alladim - Inimigo Do Peito
TTITLE7=Almir Rogério - Fuscão Preto
TTITLE8=Chitãozinho E Xororó - Ela Chora Chora
TTITLE9=João Mineiro E Marciano - O Cantor E O Peão
TTITLE10=Henrique E Ricardo - Motoca
TTITLE11=Trio Parada Dura - Passa Lá
TTITLE12=Régis E Raí - No Arrasta Pé
TTITLE13=Chitãozinho E Xororó - Pé Na Estrada
TTITLE14=Instrumental - Pençamentos
EXTD=
EXTT0=
EXTT1=
EXTT2=
EXTT3=
EXTT4=
EXTT5=
EXTT6=
EXTT7=
EXTT8=
EXTT9=
EXTT10=
EXTT11=
EXTT12=
EXTT13=
EXTT14=
PLAYORDER=
